<svg xmlns="http://www.w3.org/2000/svg" viewBox="0 0 2500 2500"><defs><style>.cls-1,.cls-14{fill:#fff;}.cls-2{fill:#2d5b98;}.cls-3{fill:#5896fa;}.cls-4{fill:#0e0e0e;}.cls-5{fill:#ffca59;}.cls-6{fill:#ed5a24;}.cls-18,.cls-7{fill:none;}.cls-7{stroke:#2e77e6;stroke-width:8.73px;stroke-dasharray:13.1 13.1;}.cls-14,.cls-18,.cls-7{stroke-miterlimit:10;}.cls-8{fill:#80b2ff;}.cls-9{fill:#005cea;}.cls-10{fill:#1251b3;}.cls-11{fill:#d9ffff;}.cls-12{fill:#296acc;}.cls-13{fill:#2e77e6;}.cls-14{stroke:#5896fa;stroke-width:6.34px;}.cls-15{fill:#d1f5ff;}.cls-16{fill:#3383ff;}.cls-17{fill:#aae0ff;}.cls-18{stroke:#fff;stroke-width:4.23px;}.cls-19{fill:#ea7b00;}.cls-20{fill:#982c20;}.cls-21{fill:#f2b066;}.cls-22{fill:#007880;}.cls-23{fill:#005459;}.cls-24{fill:#b15626;}.cls-25{fill:#f7a594;}.cls-26{fill:#99c1ff;}.cls-27{fill:#f4856d;}</style></defs><g id="BG"><rect class="cls-1" width="2500" height="2500"/></g><g id="shadow"><path id="shadow-2" data-name="shadow" class="cls-2" d="M167.62,2255.94H2384.53a12.24,12.24,0,0,0,12.23-12.24h0a12.24,12.24,0,0,0-12.23-12.24H167.62a12.24,12.24,0,0,0-12.24,12.24h0A12.24,12.24,0,0,0,167.62,2255.94Z"/><g id="plant"><path class="cls-3" d="M641.13,1841.72H888.88a0,0,0,0,1,0,0v168.87A123.88,123.88,0,0,1,765,2134.47h0a123.88,123.88,0,0,1-123.88-123.88V1841.72A0,0,0,0,1,641.13,1841.72Z"/><rect class="cls-4" x="627.4" y="1969.34" width="13.73" height="262.12"/><rect class="cls-4" x="888.88" y="1969.34" width="13.73" height="262.12"/><rect class="cls-4" x="783.81" y="1969.34" width="13.73" height="262.12"/><rect class="cls-4" x="627.4" y="2134.47" width="262.12" height="13.73"/><path class="cls-5" d="M957.93,1562.72c15,21.54-15.14,40.1-19.83,70s29.51,46.64-6.75,85.72c-22.34,24.07-41.19-7.9-59.34,29s-3.85,43.11-24.26,56.38c-35.57,23.14-90-28-71.69-64.85s55.33-33.55,38.2-63.87-23.5-43.38,6-59c36.56-19.28,68.77-1.57,71.71-29.78S938.16,1534.24,957.93,1562.72Z"/><path class="cls-4" d="M801.65,1840l-6.15-1.22c28.82-145.69,124.38-247.71,125.34-248.72l4.55,4.32C924.44,1595.41,830.11,1696.18,801.65,1840Z"/><path class="cls-6" d="M478.82,1508.9c-15.46,31.5,28.1,50,40.3,88.57s-32.73,52.17,23.11,96.6c34.4,27.37,41.6,10.26,54.24,71.47,11.13,53.89,52.08,2.61,82.7,34.24,39.51,40.81,101.25-48.76,69.62-93.84s-68.54-33.43-52-77-3.19-76.39-45.42-91.07c-52.25-18.16-71,25.7-80.61-11S499.26,1467.23,478.82,1508.9Z"/><path class="cls-4" d="M741.39,1844.43c-66.63-184.73-211.69-299-213.14-300.14l5.15-6.64c1.48,1.15,148.44,116.93,215.89,303.93Z"/></g></g><g id="system"><circle class="cls-7" cx="922.94" cy="803.22" r="529.81"/><path class="cls-1" d="M1057.08,768.44a93.34,93.34,0,0,0-178.47-48.93A65.17,65.17,0,0,0,770,768.2H757.86a63.18,63.18,0,0,0-63,63h0a63.18,63.18,0,0,0,63,63h294.57a63.19,63.19,0,0,0,63-63h0A63.17,63.17,0,0,0,1057.08,768.44Z"/><rect class="cls-3" x="696.59" y="1074.82" width="442.46" height="378.94" rx="24.03"/><path class="cls-1" d="M1051.78,1303.63H785a15.93,15.93,0,0,1-15.87-15.87h0A15.92,15.92,0,0,1,785,1271.89h266.74a15.92,15.92,0,0,1,15.87,15.87h0A15.93,15.93,0,0,1,1051.78,1303.63Z"/><path class="cls-1" d="M1051.78,1354.74H785a15.92,15.92,0,0,1-15.87-15.87h0A15.92,15.92,0,0,1,785,1323h266.74a15.92,15.92,0,0,1,15.87,15.87h0A15.92,15.92,0,0,1,1051.78,1354.74Z"/><path class="cls-8" d="M834.85,1340.28a5.59,5.59,0,1,1-5.59-5.59A5.58,5.58,0,0,1,834.85,1340.28Z"/><path class="cls-8" d="M854,1340.28a5.59,5.59,0,1,1-5.59-5.59A5.58,5.58,0,0,1,854,1340.28Z"/><path class="cls-8" d="M873.16,1340.28a5.59,5.59,0,1,1-5.58-5.59A5.58,5.58,0,0,1,873.16,1340.28Z"/><path class="cls-8" d="M892.32,1340.28a5.59,5.59,0,1,1-5.59-5.59A5.58,5.58,0,0,1,892.32,1340.28Z"/><path class="cls-8" d="M911.48,1340.28a5.59,5.59,0,1,1-5.59-5.59A5.59,5.59,0,0,1,911.48,1340.28Z"/><path class="cls-8" d="M930.63,1340.28a5.59,5.59,0,1,1-5.59-5.59A5.58,5.58,0,0,1,930.63,1340.28Z"/><path class="cls-8" d="M949.79,1340.28a5.59,5.59,0,1,1-5.59-5.59A5.58,5.58,0,0,1,949.79,1340.28Z"/><path class="cls-8" d="M968.94,1340.28a5.59,5.59,0,1,1-5.58-5.59A5.58,5.58,0,0,1,968.94,1340.28Z"/><path class="cls-8" d="M988.1,1340.28a5.59,5.59,0,1,1-5.59-5.59A5.58,5.58,0,0,1,988.1,1340.28Z"/><circle class="cls-1" cx="918.5" cy="1166.16" r="61.31"/><path class="cls-9" d="M918.59,1163.7a19.38,19.38,0,0,0,15-7.37,18.9,18.9,0,0,0,4.15-12,19.27,19.27,0,1,0-38.53,0,18.89,18.89,0,0,0,4.14,12A19.45,19.45,0,0,0,918.59,1163.7Z"/><path class="cls-9" d="M952.57,1198.16c0,12.21-68.16,12.21-68.16,0l0-14.22c2.69-19.45,62.59-20.27,68.15,0Z"/><path class="cls-3" d="M798.27,1335.94v-.85a6.24,6.24,0,0,0-12.48,0v.85h-.95v11.26c0,1.94,14.42,1.94,14.42,0v-11.26Zm-10.26-.85a4,4,0,1,1,8.08,0v.85H788Zm5.08,6.52v3.25a1,1,0,0,1-1.08,1,1,1,0,0,1-1-1v-3.25a1.88,1.88,0,0,1-1-1.67,2,2,0,1,1,3.08,1.67Z"/><path class="cls-3" d="M792,1286.6a4.09,4.09,0,0,0,3.18-1.55,4,4,0,0,0,.87-2.53,4.07,4.07,0,1,0-8.13,0,4,4,0,0,0,.88,2.53A4.08,4.08,0,0,0,792,1286.6Z"/><path class="cls-3" d="M799.22,1293.88c0,2.57-14.46,2.57-14.46,0l.08-3c.57-4.11,13.21-4.28,14.38,0Z"/><path class="cls-8" d="M885.47,1292.41H827a4.67,4.67,0,0,1-4.66-4.65h0a4.67,4.67,0,0,1,4.66-4.66h58.45a4.66,4.66,0,0,1,4.66,4.66h0A4.66,4.66,0,0,1,885.47,1292.41Z"/><path class="cls-8" d="M962.57,1292.41H904.11a4.66,4.66,0,0,1-4.65-4.65h0a4.66,4.66,0,0,1,4.65-4.66h58.46a4.66,4.66,0,0,1,4.65,4.66h0A4.66,4.66,0,0,1,962.57,1292.41Z"/><rect class="cls-10" x="871.39" y="1377.07" width="80.16" height="27.19" rx="13.6"/><path class="cls-11" d="M244.65,850.7h0v0Z"/><path class="cls-11" d="M244.65,850.7h0v0Z"/><path class="cls-11" d="M505.38,851.87s0-.6,0-.68,0,.24,0,.68Z"/><path class="cls-11" d="M505.38,851.87s0-.6,0-.68,0,.24,0,.68Z"/><path class="cls-1" d="M375.55,780.26c-30.38,32.55-78.87,59.22-130.75,70.58,0,3.47-.1,22.67-.49,111.15-.53,118,111.8,175.72,129.24,184.57,16.9-7.78,130.65-65.37,131.18-183.41.4-88.48.48-107.68.5-111.14C453.45,840.18,405.64,813.08,375.55,780.26Z"/><path class="cls-12" d="M375.24,801.59c-29.75,27.3-71,48.75-116.3,60.44l-.45,100c-.2,45.76,18,87.16,54,123a258.25,258.25,0,0,0,61.24,44.78l1.73-.89V801.83Z"/><path class="cls-13" d="M375.5,801.83V1129a258.64,258.64,0,0,0,59.92-43.34c36.37-35.57,54.92-76.8,55.13-122.56l.44-100C445.9,851,405,829.27,375.5,801.83Z"/><path class="cls-1" d="M322.83,946v77.48c0,8.63,105.34,8.63,105.34,0V946Zm58,41.15v22a5.33,5.33,0,1,1-10.66,0v-22a13,13,0,1,1,10.66,0Z"/><path class="cls-1" d="M419,940.45H408.28v-5.22a32.78,32.78,0,0,0-65.56,0v5.22H332.06v-5.22a43.45,43.45,0,0,1,86.89,0Z"/><rect class="cls-12" x="964.94" y="142.57" width="190.28" height="237.51"/><rect class="cls-14" x="989.62" y="167.1" width="190.28" height="237.51"/><rect class="cls-14" x="1020.96" y="191.18" width="190.28" height="237.51"/><rect class="cls-3" x="1043.76" y="215.71" width="190.28" height="237.51"/><rect class="cls-9" x="1106.01" y="254.7" width="98.42" height="15.45"/><rect class="cls-9" x="1076.9" y="290.99" width="127.53" height="15.45"/><rect class="cls-9" x="1076.9" y="327.28" width="127.53" height="15.45"/><rect class="cls-9" x="1076.9" y="363.58" width="127.53" height="15.45"/><rect class="cls-9" x="1076.9" y="399.87" width="127.53" height="15.45"/><circle class="cls-1" cx="547.51" cy="401.09" r="67.2" transform="translate(34.28 845.21) rotate(-77.1)"/><path class="cls-9" d="M653.54,465A123.28,123.28,0,0,0,670,419.17l5,.74,9.88,1.45H685a137.91,137.91,0,0,0-2.6-53.69l-14.7,3.64a123.28,123.28,0,0,0-20.81-44l12.19-9.07a137.62,137.62,0,0,0-39.79-36.17l-7.86,13a123.19,123.19,0,0,0-45.82-16.47l2.19-15a138.85,138.85,0,0,0-53.69,2.6l3.64,14.71a123.25,123.25,0,0,0-44,20.8l-9.06-12.19a137.55,137.55,0,0,0-36.18,39.8l13,7.85A122.89,122.89,0,0,0,425.08,383l-10.63-1.57-4.34-.6-.05,0a139,139,0,0,0,2.59,53.69l14.71-3.64a123.68,123.68,0,0,0,20.85,44.05L436,484a137.36,137.36,0,0,0,39.75,36.14l7.85-13a123.53,123.53,0,0,0,45.88,16.5l-1.73,11.67-.47,3.35A138.85,138.85,0,0,0,581,536l-3.64-14.71a124.57,124.57,0,0,0,44.1-20.82l9.06,12.19a138.14,138.14,0,0,0,36.09-39.78Zm-140.71-6.36a67.19,67.19,0,1,1,92.23-22.88A67.19,67.19,0,0,1,512.83,458.64Z"/><path class="cls-10" d="M402,456.08A65,65,0,0,0,384,437.9l1.48-2.22,2.93-4.37,0-.06a72.8,72.8,0,0,0-26.12-10.9l-1.59,7.82a64.71,64.71,0,0,0-25.64-.05l-1.55-7.85A72.35,72.35,0,0,0,307.3,431l4.41,6.68a64.78,64.78,0,0,0-18.18,18.07l-6.65-4.44A73.21,73.21,0,0,0,276,477.45L283.8,479a64.9,64.9,0,0,0-.06,25.64l-7.84,1.55a72.4,72.4,0,0,0,10.75,26.2l6.68-4.42A64.82,64.82,0,0,0,311.4,546.2l-3.15,4.7L307,552.83l0,0a73.18,73.18,0,0,0,26.12,10.89l1.59-7.81a65.19,65.19,0,0,0,25.66,0l1.56,7.85a72.14,72.14,0,0,0,26.17-10.74l-4.42-6.67a65,65,0,0,0,18.21-18.09l5.16,3.46,1.49,1a73,73,0,0,0,10.87-26.11l-7.81-1.59a65.85,65.85,0,0,0,.06-25.68l7.84-1.55a72.69,72.69,0,0,0-10.76-26.15Zm-34.82,65.48a35.38,35.38,0,1,1,10-49A35.37,35.37,0,0,1,367.21,521.56Z"/><rect class="cls-9" x="1331.54" y="487.5" width="175.83" height="105.16" rx="6.23"/><rect class="cls-3" x="1331.54" y="507.36" width="175.83" height="18.15"/><path class="cls-15" d="M1371.82,572.48H1346a3,3,0,0,0-3,3h0a3,3,0,0,0,3,3h25.85a3,3,0,0,0,3-3h0A3,3,0,0,0,1371.82,572.48Z"/><path class="cls-15" d="M1411.58,572.48h-25.86a3,3,0,0,0-3,3h0a3,3,0,0,0,3,3h25.86a3,3,0,0,0,3-3h0A3,3,0,0,0,1411.58,572.48Z"/><path class="cls-15" d="M1451.34,572.48h-25.86a3,3,0,0,0-3,3h0a3,3,0,0,0,3,3h25.86a3,3,0,0,0,3-3h0A3,3,0,0,0,1451.34,572.48Z"/><path class="cls-15" d="M1491.09,572.48h-25.85a3,3,0,0,0-3,3h0a3,3,0,0,0,3,3h25.85a3,3,0,0,0,3-3h0A3,3,0,0,0,1491.09,572.48Z"/><path class="cls-15" d="M1344.78,492.83h0a3.29,3.29,0,0,0-3.29,3.29v1.15a3.29,3.29,0,0,0,3.29,3.29h0a3.29,3.29,0,0,0,3.28-3.29v-1.15A3.28,3.28,0,0,0,1344.78,492.83Z"/><path class="cls-15" d="M1351.85,496.69h0a3.86,3.86,0,0,0,3.86,3.87h13.69a3.86,3.86,0,0,0,3.86-3.87h0a3.86,3.86,0,0,0-3.86-3.86h-13.69A3.86,3.86,0,0,0,1351.85,496.69Z"/><rect class="cls-3" x="1344.93" y="535.26" width="27.93" height="25.5" rx="5.13"/><path class="cls-10" d="M1436.44,860.51v-12a9.87,9.87,0,0,0-9.87-9.88H1321.43a9.88,9.88,0,0,0-9.88,9.88v212.33h272V860.51Z"/><polygon class="cls-1" points="1594.82 867.81 1328.14 867.81 1311.56 1060.83 1582.18 1060.83 1594.82 867.81"/><path class="cls-16" d="M1583.51,1060.83h-272l28.85-190.62a11.41,11.41,0,0,1,11.28-9.7h248.88a11.41,11.41,0,0,1,11.28,13.11Z"/><circle class="cls-9" cx="1611.98" cy="867.81" r="62.31" transform="translate(-141.49 1394.02) rotate(-45)"/><path class="cls-1" d="M1612,932.4a64.59,64.59,0,1,1,64.6-64.6A64.67,64.67,0,0,1,1612,932.4Zm0-124.63a60,60,0,1,0,60,60A60.09,60.09,0,0,0,1612,807.77Z"/><path class="cls-1" d="M1582,856.53v44.12c0,4.92,60,4.92,60,0V856.53ZM1615,880v12.51a3,3,0,1,1-6.07,0V879.93a7.37,7.37,0,1,1,6.07,0Z"/><path class="cls-1" d="M1636.72,853.39h-6.07v-3a18.67,18.67,0,0,0-37.34,0v3h-6.07v-3a24.74,24.74,0,1,1,49.48,0Z"/><circle class="cls-17" cx="1395.61" cy="346.33" r="23.86"/><circle class="cls-17" cx="769.17" cy="435.34" r="23.86" transform="translate(209.85 1119.68) rotate(-80.25)"/><circle class="cls-1" cx="1562.89" cy="752.97" r="12.48"/><circle class="cls-17" cx="256.78" cy="776.37" r="12.48" transform="translate(-557.72 848.93) rotate(-76.79)"/><circle class="cls-17" cx="452.02" cy="1231.17" r="23.86" transform="translate(-489.91 318.55) rotate(-25.74)"/><path class="cls-17" d="M834.84,198.52h0a4.13,4.13,0,0,1-4.14-4.13V150.14a4.14,4.14,0,0,1,4.14-4.14h0a4.13,4.13,0,0,1,4.13,4.14v44.25A4.13,4.13,0,0,1,834.84,198.52Z"/><path class="cls-17" d="M808.58,172.26h0a4.13,4.13,0,0,1,4.13-4.13H857a4.13,4.13,0,0,1,4.14,4.13h0A4.14,4.14,0,0,1,857,176.4H812.71A4.13,4.13,0,0,1,808.58,172.26Z"/><path class="cls-1" d="M1305.28,766.75h0a4.13,4.13,0,0,1-4.13-4.14V718.36a4.13,4.13,0,0,1,4.13-4.13h0a4.13,4.13,0,0,1,4.14,4.13v44.25A4.14,4.14,0,0,1,1305.28,766.75Z"/><path class="cls-1" d="M1279,740.49h0a4.13,4.13,0,0,1,4.13-4.14h44.25a4.13,4.13,0,0,1,4.13,4.14h0a4.13,4.13,0,0,1-4.13,4.13h-44.25A4.13,4.13,0,0,1,1279,740.49Z"/><path class="cls-1" d="M1260.29,1349.6h0a4.13,4.13,0,0,1-4.13-4.13v-44.25a4.14,4.14,0,0,1,4.13-4.14h0a4.14,4.14,0,0,1,4.14,4.14v44.25A4.13,4.13,0,0,1,1260.29,1349.6Z"/><path class="cls-1" d="M1234,1323.34h0a4.13,4.13,0,0,1,4.14-4.13h44.25a4.13,4.13,0,0,1,4.13,4.13h0a4.13,4.13,0,0,1-4.13,4.14h-44.25A4.14,4.14,0,0,1,1234,1323.34Z"/><circle class="cls-18" cx="891.98" cy="1019.29" r="13.23"/></g><g id="male"><polygon class="cls-4" points="1217.16 2231.32 1165.39 2231.32 1160.03 2118.74 1222.52 2118.74 1217.16 2231.32"/><polygon class="cls-4" points="2117.04 2231.32 2065.26 2231.32 2059.91 2118.74 2122.39 2118.74 2117.04 2231.32"/><path class="cls-19" d="M2071.9,1923.35q-8.57,26.55-18.74,54.51H1193.61s-110.93-451.51,0-534.09a73.44,73.44,0,0,1,10.21-6.21c149.4-76.77,748.4-94.8,870,4,.93.74,1.79,1.5,2.62,2.25C2121.26,1484.91,2160.22,1649.11,2071.9,1923.35Z"/><path class="cls-20" d="M1517.68,1977.86H1193.8l31.59-316.45C1281.86,1685.91,1432.22,1815.3,1517.68,1977.86Z"/><path class="cls-20" d="M2071.9,1923.35q-8.57,26.55-18.74,54.51H1741c53.69-99.57,183.87-250.4,310.29-319.82Z"/><path class="cls-19" d="M2179.6,1657H2060.43a39.94,39.94,0,0,0-39.59,34.7l-38,287.38H1286.36l-38-287.38a39.94,39.94,0,0,0-39.59-34.7H1089.6a39.94,39.94,0,0,0-39.32,47l66.16,478.58H2152.76l66.16-478.58A39.94,39.94,0,0,0,2179.6,1657Z"/><path class="cls-21" d="M1975.89,1822.09c56.08,18.77,45.15,137.51,0,155.76H1295.57c-50.81-13.11-55.1-170.17,18.17-158.36C1762.19,1903.81,1783.91,1769.3,1975.89,1822.09Z"/><path class="cls-22" d="M1457.36,1701.73a631.36,631.36,0,0,0,4.74,84.8h319L1800,1475c-19-113.77-70.82-141.34-152.93-141.34-73.48,0-122.42,59.94-152.16,140.18C1469.19,1543.21,1457.82,1627.67,1457.36,1701.73Z"/><path class="cls-23" d="M1457.36,1707.75l115.44-7c-64.09-21-69.19-119.34-4-180.55l-73.86-46.37C1469.19,1543.21,1457.82,1633.68,1457.36,1707.75Z"/><polygon class="cls-4" points="1435.39 1850.89 1873.67 1850.89 1873.67 1701.74 1478.87 1701.74 1435.39 1850.89"/><path class="cls-4" d="M1929.66,1803.56l-117.72,427.76h-91.8c29.06-182,22.56-300.36,49.89-451.51C1794,1655.74,1958.2,1688.58,1929.66,1803.56Z"/><path class="cls-24" d="M1779,2231.32c0-.28,0-.56,0-.85a57.42,57.42,0,0,1,114.83,0c0,.29,0,.57,0,.85Z"/><path class="cls-24" d="M1847.43,2174.13l-20.87-6.38c-13.77-27.1-72.53-23.75-64.34,9.24-23.06,3.43-35.18-8-35.18-8l-6.9,62.38h124.48Z"/><path class="cls-4" d="M1412.74,1803.56l117.73,427.76h91.79c-29.06-182-22.55-300.36-49.89-451.51C1548.4,1655.74,1384.2,1688.58,1412.74,1803.56Z"/><path class="cls-24" d="M1563.44,2231.32c0-.28,0-.56,0-.85a57.42,57.42,0,0,0-114.84,0c0,.29,0,.57,0,.85Z"/><path class="cls-24" d="M1495,2174.13l20.87-6.38c13.78-27.1,72.53-23.75,64.35,9.24,23,3.43,35.18-8,35.18-8l6.89,62.38H1497.78Z"/><path class="cls-22" d="M1597.9,1343.71c43.06,26.13,49.19,103.72,27.12,134.63l-122.85,91.52,125.08,64.41-20.32,66.53s-130.56-10.63-194.46-76.18C1351.11,1561.68,1500.7,1376.81,1597.9,1343.71Z"/><path class="cls-22" d="M1685.24,1461.41c-36.82-46.25-11.39-117.7,35.55-115.6,152.88,53.82,200.07,203.25,151.64,270.33-41.5,57.47-224,79.6-224,79.6v-62.92l126.81-27.4S1709.84,1504.11,1685.24,1461.41Z"/><path class="cls-25" d="M1551.28,1679.78c-2.37-21.07,10-47.42,41.67-53.17,55.39-10.06,75.44,20.33,80.68,42.05,1.36,5.66-3.79,11.65-8.54,11.12s-8.11-3.21-8.92-7.52c-1-5.19-3.73-11.61-9.67-15,5.73,11.22,3.34,22.48-12.26,22.48Z"/><path class="cls-26" d="M1676.34,1679.73l43.59-218.56h9.24L1682,1701.74H1551.37l-14.27-22Z"/><polygon class="cls-1" points="1729.17 1461.17 2053.52 1461.17 2005.54 1701.74 1682 1701.74 1729.17 1461.17"/><path class="cls-25" d="M1634.6,1359.38c0,24.87,74.55,41.36,98.92,15.22a27.6,27.6,0,0,0,7.2-14.75l14-63-89-33.57-2.65,8.23Z"/><path class="cls-27" d="M1740.72,1359.85l14-63-84.24-22.68C1648.72,1339.07,1726.53,1390.92,1740.72,1359.85Z"/><path class="cls-25" d="M1659.14,1239.09c-4.69,61.91,44.24,116.43,85.29,119.2s97.57-43.09,102.26-105-33.5-115.28-85.29-119.2S1663.83,1177.18,1659.14,1239.09Z"/><path class="cls-4" d="M1727.78,1138.78c56.76-36,88-2.14,116.28,33.72,19.83,25.16,33.88,43.24,58.57,47-47.49,59.9-142.46,20.39-172.38-39.63-3,34.16-43.22,62.46-71.11,59.2C1650.11,1201.07,1676.44,1124.21,1727.78,1138.78Z"/><circle class="cls-25" cx="1669.97" cy="1239.91" r="24.71" transform="translate(-177.05 283.51) rotate(-9.22)"/></g></svg>